<svg width="147" height="46" viewBox="0 0 147 46" fill="none" xmlns="http://www.w3.org/2000/svg">
<rect width="147" height="46" fill="white"/>
<path d="M25.3 22.84C26.0867 22.9867 26.7333 23.38 27.24 24.02C27.7467 24.66 28 25.3933 28 26.22C28 26.9667 27.8133 27.6267 27.44 28.2C27.08 28.76 26.5533 29.2 25.86 29.52C25.1667 29.84 24.3467 30 23.4 30H17.38V16.04H23.14C24.0867 16.04 24.9 16.1933 25.58 16.5C26.2733 16.8067 26.7933 17.2333 27.14 17.78C27.5 18.3267 27.68 18.9467 27.68 19.64C27.68 20.4533 27.46 21.1333 27.02 21.68C26.5933 22.2267 26.02 22.6133 25.3 22.84ZM20.18 21.8H22.74C23.4067 21.8 23.92 21.6533 24.28 21.36C24.64 21.0533 24.82 20.62 24.82 20.06C24.82 19.5 24.64 19.0667 24.28 18.76C23.92 18.4533 23.4067 18.3 22.74 18.3H20.18V21.8ZM23 27.72C23.68 27.72 24.2067 27.56 24.58 27.24C24.9667 26.92 25.16 26.4667 25.16 25.88C25.16 25.28 24.96 24.8133 24.56 24.48C24.16 24.1333 23.62 23.96 22.94 23.96H20.18V27.72H23ZM40.6316 24.22C40.6316 24.62 40.6049 24.98 40.5516 25.3H32.4516C32.5182 26.1 32.7982 26.7267 33.2916 27.18C33.7849 27.6333 34.3916 27.86 35.1116 27.86C36.1516 27.86 36.8916 27.4133 37.3316 26.52H40.3516C40.0316 27.5867 39.4182 28.4667 38.5116 29.16C37.6049 29.84 36.4916 30.18 35.1716 30.18C34.1049 30.18 33.1449 29.9467 32.2916 29.48C31.4516 29 30.7916 28.3267 30.3116 27.46C29.8449 26.5933 29.6116 25.5933 29.6116 24.46C29.6116 23.3133 29.8449 22.3067 30.3116 21.44C30.7782 20.5733 31.4316 19.9067 32.2716 19.44C33.1116 18.9733 34.0782 18.74 35.1716 18.74C36.2249 18.74 37.1649 18.9667 37.9916 19.42C38.8316 19.8733 39.4782 20.52 39.9316 21.36C40.3982 22.1867 40.6316 23.14 40.6316 24.22ZM37.7316 23.42C37.7182 22.7 37.4582 22.1267 36.9516 21.7C36.4449 21.26 35.8249 21.04 35.0916 21.04C34.3982 21.04 33.8116 21.2533 33.3316 21.68C32.8649 22.0933 32.5782 22.6733 32.4716 23.42H37.7316ZM45.5753 20.64C45.9353 20.0533 46.402 19.5933 46.9753 19.26C47.562 18.9267 48.2286 18.76 48.9753 18.76V21.7H48.2353C47.3553 21.7 46.6886 21.9067 46.2353 22.32C45.7953 22.7333 45.5753 23.4533 45.5753 24.48V30H42.7753V18.92H45.5753V20.64ZM55.3012 18.74C56.1279 18.74 56.8546 18.9067 57.4812 19.24C58.1079 19.56 58.6012 19.98 58.9612 20.5V18.92H61.7812V30.08C61.7812 31.1067 61.5746 32.02 61.1613 32.82C60.7479 33.6333 60.1279 34.2733 59.3012 34.74C58.4746 35.22 57.4746 35.46 56.3012 35.46C54.7279 35.46 53.4346 35.0933 52.4212 34.36C51.4212 33.6267 50.8546 32.6267 50.7212 31.36H53.5012C53.6479 31.8667 53.9612 32.2667 54.4412 32.56C54.9346 32.8667 55.5279 33.02 56.2212 33.02C57.0346 33.02 57.6946 32.7733 58.2012 32.28C58.7079 31.8 58.9612 31.0667 58.9612 30.08V28.36C58.6012 28.88 58.1012 29.3133 57.4612 29.66C56.8346 30.0067 56.1146 30.18 55.3012 30.18C54.3679 30.18 53.5146 29.94 52.7412 29.46C51.9679 28.98 51.3546 28.3067 50.9012 27.44C50.4612 26.56 50.2412 25.5533 50.2412 24.42C50.2412 23.3 50.4612 22.3067 50.9012 21.44C51.3546 20.5733 51.9612 19.9067 52.7212 19.44C53.4946 18.9733 54.3546 18.74 55.3012 18.74ZM58.9612 24.46C58.9612 23.78 58.8279 23.2 58.5612 22.72C58.2946 22.2267 57.9346 21.8533 57.4812 21.6C57.0279 21.3333 56.5412 21.2 56.0212 21.2C55.5012 21.2 55.0212 21.3267 54.5812 21.58C54.1412 21.8333 53.7812 22.2067 53.5012 22.7C53.2346 23.18 53.1012 23.7533 53.1012 24.42C53.1012 25.0867 53.2346 25.6733 53.5012 26.18C53.7812 26.6733 54.1412 27.0533 54.5812 27.32C55.0346 27.5867 55.5146 27.72 56.0212 27.72C56.5412 27.72 57.0279 27.5933 57.4812 27.34C57.9346 27.0733 58.2946 26.7 58.5612 26.22C58.8279 25.7267 58.9612 25.14 58.9612 24.46ZM63.8959 24.42C63.8959 23.3 64.1159 22.3067 64.5559 21.44C65.0093 20.5733 65.6159 19.9067 66.3759 19.44C67.1493 18.9733 68.0093 18.74 68.9559 18.74C69.7826 18.74 70.5026 18.9067 71.1159 19.24C71.7426 19.5733 72.2426 19.9933 72.6159 20.5V18.92H75.4359V30H72.6159V28.38C72.2559 28.9 71.7559 29.3333 71.1159 29.68C70.4893 30.0133 69.7626 30.18 68.9359 30.18C68.0026 30.18 67.1493 29.94 66.3759 29.46C65.6159 28.98 65.0093 28.3067 64.5559 27.44C64.1159 26.56 63.8959 25.5533 63.8959 24.42ZM72.6159 24.46C72.6159 23.78 72.4826 23.2 72.2159 22.72C71.9493 22.2267 71.5893 21.8533 71.1359 21.6C70.6826 21.3333 70.1959 21.2 69.6759 21.2C69.1559 21.2 68.6759 21.3267 68.2359 21.58C67.7959 21.8333 67.4359 22.2067 67.1559 22.7C66.8893 23.18 66.7559 23.7533 66.7559 24.42C66.7559 25.0867 66.8893 25.6733 67.1559 26.18C67.4359 26.6733 67.7959 27.0533 68.2359 27.32C68.6893 27.5867 69.1693 27.72 69.6759 27.72C70.1959 27.72 70.6826 27.5933 71.1359 27.34C71.5893 27.0733 71.9493 26.7 72.2159 26.22C72.4826 25.7267 72.6159 25.14 72.6159 24.46ZM81.0706 20.54C81.4306 20.0067 81.924 19.5733 82.5506 19.24C83.1906 18.9067 83.9173 18.74 84.7306 18.74C85.6773 18.74 86.5306 18.9733 87.2906 19.44C88.064 19.9067 88.6706 20.5733 89.1106 21.44C89.564 22.2933 89.7906 23.2867 89.7906 24.42C89.7906 25.5533 89.564 26.56 89.1106 27.44C88.6706 28.3067 88.064 28.98 87.2906 29.46C86.5306 29.94 85.6773 30.18 84.7306 30.18C83.904 30.18 83.1773 30.02 82.5506 29.7C81.9373 29.3667 81.444 28.94 81.0706 28.42V30H78.2706V15.2H81.0706V20.54ZM86.9306 24.42C86.9306 23.7533 86.7906 23.18 86.5106 22.7C86.244 22.2067 85.884 21.8333 85.4306 21.58C84.9906 21.3267 84.5106 21.2 83.9906 21.2C83.484 21.2 83.004 21.3333 82.5506 21.6C82.1106 21.8533 81.7506 22.2267 81.4706 22.72C81.204 23.2133 81.0706 23.7933 81.0706 24.46C81.0706 25.1267 81.204 25.7067 81.4706 26.2C81.7506 26.6933 82.1106 27.0733 82.5506 27.34C83.004 27.5933 83.484 27.72 83.9906 27.72C84.5106 27.72 84.9906 27.5867 85.4306 27.32C85.884 27.0533 86.244 26.6733 86.5106 26.18C86.7906 25.6867 86.9306 25.1 86.9306 24.42ZM102.385 18.92V30H99.5653V28.6C99.2053 29.08 98.732 29.46 98.1453 29.74C97.572 30.0067 96.9453 30.14 96.2653 30.14C95.3986 30.14 94.632 29.96 93.9653 29.6C93.2986 29.2267 92.772 28.6867 92.3853 27.98C92.012 27.26 91.8253 26.4067 91.8253 25.42V18.92H94.6253V25.02C94.6253 25.9 94.8453 26.58 95.2853 27.06C95.7253 27.5267 96.3253 27.76 97.0853 27.76C97.8586 27.76 98.4653 27.5267 98.9053 27.06C99.3453 26.58 99.5653 25.9 99.5653 25.02V18.92H102.385ZM111.388 18.76C112.708 18.76 113.775 19.18 114.588 20.02C115.401 20.8467 115.808 22.0067 115.808 23.5V30H113.008V23.88C113.008 23 112.788 22.3267 112.348 21.86C111.908 21.38 111.308 21.14 110.548 21.14C109.775 21.14 109.161 21.38 108.708 21.86C108.268 22.3267 108.048 23 108.048 23.88V30H105.248V18.92H108.048V20.3C108.421 19.82 108.895 19.4467 109.468 19.18C110.055 18.9 110.695 18.76 111.388 18.76ZM122.911 18.74C123.737 18.74 124.464 18.9067 125.091 19.24C125.717 19.56 126.211 19.98 126.571 20.5V18.92H129.391V30.08C129.391 31.1067 129.184 32.02 128.771 32.82C128.357 33.6333 127.737 34.2733 126.911 34.74C126.084 35.22 125.084 35.46 123.911 35.46C122.337 35.46 121.044 35.0933 120.031 34.36C119.031 33.6267 118.464 32.6267 118.331 31.36H121.111C121.257 31.8667 121.571 32.2667 122.051 32.56C122.544 32.8667 123.137 33.02 123.831 33.02C124.644 33.02 125.304 32.7733 125.811 32.28C126.317 31.8 126.571 31.0667 126.571 30.08V28.36C126.211 28.88 125.711 29.3133 125.071 29.66C124.444 30.0067 123.724 30.18 122.911 30.18C121.977 30.18 121.124 29.94 120.351 29.46C119.577 28.98 118.964 28.3067 118.511 27.44C118.071 26.56 117.851 25.5533 117.851 24.42C117.851 23.3 118.071 22.3067 118.511 21.44C118.964 20.5733 119.571 19.9067 120.331 19.44C121.104 18.9733 121.964 18.74 122.911 18.74ZM126.571 24.46C126.571 23.78 126.437 23.2 126.171 22.72C125.904 22.2267 125.544 21.8533 125.091 21.6C124.637 21.3333 124.151 21.2 123.631 21.2C123.111 21.2 122.631 21.3267 122.191 21.58C121.751 21.8333 121.391 22.2067 121.111 22.7C120.844 23.18 120.711 23.7533 120.711 24.42C120.711 25.0867 120.844 25.6733 121.111 26.18C121.391 26.6733 121.751 27.0533 122.191 27.32C122.644 27.5867 123.124 27.72 123.631 27.72C124.151 27.72 124.637 27.5933 125.091 27.34C125.544 27.0733 125.904 26.7 126.171 26.22C126.437 25.7267 126.571 25.14 126.571 24.46Z" fill="#2A9D8F"/>
</svg>
